<svg width="4" height="7" viewBox="0 0 4 7" fill="none" xmlns="http://www.w3.org/2000/svg">
<mask id="path-1-inside-1_2591_606" fill="white">
<path d="M0.6 7L0 6.38235L3.2 3.5L0 0.617647L0.6 0L4 3.5L0.6 7Z"/>
</mask>
<path d="M0.6 7L0 6.38235L3.2 3.5L0 0.617647L0.6 0L4 3.5L0.6 7Z" fill="black"/>
<path d="M0 6.38235L-0.669267 5.63933L-1.44083 6.33431L-0.717279 7.07914L0 6.38235ZM0.6 7L-0.117279 7.69679L0.6 8.43516L1.31728 7.69679L0.6 7ZM4 3.5L4.71728 4.19679L5.39416 3.5L4.71728 2.80321L4 3.5ZM0.6 0L1.31728 -0.696786L0.6 -1.43516L-0.117279 -0.696786L0.6 0ZM0 0.617647L-0.717279 -0.0791387L-1.44083 0.665694L-0.669267 1.36067L0 0.617647ZM3.2 3.5L3.86927 4.24302L4.69417 3.5L3.86927 2.75698L3.2 3.5ZM0 6.38235L-0.717279 7.07914L-0.117279 7.69679L0.6 7L1.31728 6.30321L0.717279 5.68557L0 6.38235ZM0.6 7L1.31728 7.69679L4.71728 4.19679L4 3.5L3.28272 2.80321L-0.117279 6.30321L0.6 7ZM4 3.5L4.71728 2.80321L1.31728 -0.696786L0.6 0L-0.117279 0.696786L3.28272 4.19679L4 3.5ZM0.6 0L-0.117279 -0.696786L-0.717279 -0.0791387L0 0.617647L0.717279 1.31443L1.31728 0.696786L0.6 0ZM0 0.617647L-0.669267 1.36067L2.53073 4.24302L3.2 3.5L3.86927 2.75698L0.669267 -0.125375L0 0.617647ZM3.2 3.5L2.53073 2.75698L-0.669267 5.63933L0 6.38235L0.669267 7.12538L3.86927 4.24302L3.2 3.5Z" fill="black" mask="url(#path-1-inside-1_2591_606)"/>
</svg>
